<?xml version="1.0" standalone="no"?>
<!DOCTYPE svg PUBLIC "-//W3C//DTD SVG 20010904//EN"
 "http://www.w3.org/TR/2001/REC-SVG-20010904/DTD/svg10.dtd">
<svg version="1.0" xmlns="http://www.w3.org/2000/svg"
 width="410.000000pt" height="410.000000pt" viewBox="0 0 410.000000 410.000000"
 preserveAspectRatio="xMidYMid meet">
<metadata>
Created by potrace 1.14, written by Peter Selinger 2001-2017
</metadata>
<g transform="translate(0.000000,410.000000) scale(0.100000,-0.100000)"
fill="#000000" stroke="none">
<path d="M2010 3862 c0 -4 -20 -30 -45 -59 -25 -28 -45 -55 -45 -60 0 -5 22
-25 50 -46 l50 -37 44 32 c25 18 45 40 45 49 1 9 -20 42 -45 73 -46 56 -54 63
-54 48z"/>
<path d="M1670 3772 c0 -33 21 -82 40 -92 10 -6 40 -10 65 -10 44 0 47 -1 41
-23 -9 -38 14 -59 73 -65 56 -5 78 -26 66 -62 -5 -16 -2 -20 19 -20 24 0 26 3
26 44 0 82 -50 128 -200 182 -41 15 -87 36 -102 46 -28 19 -28 19 -28 0z"/>
<path d="M2341 3776 c-7 -8 -54 -31 -106 -51 -149 -58 -193 -96 -202 -179 l-6
-46 32 0 c28 0 31 3 26 21 -9 28 21 59 56 59 15 0 40 5 55 12 23 11 25 17 21
48 l-5 36 53 -4 c67 -5 95 17 95 78 0 44 -2 47 -19 26z"/>
<path d="M1440 3634 c-52 -22 -88 -61 -125 -134 -18 -36 -47 -78 -64 -95 -17
-16 -31 -33 -31 -36 0 -4 16 -10 34 -13 68 -13 138 39 152 110 l6 33 25 -29
c20 -24 33 -30 64 -30 l40 0 -25 33 c-15 19 -26 46 -26 60 0 34 32 67 66 67
33 0 104 -68 104 -100 0 -19 4 -21 33 -15 41 9 41 9 27 37 -26 49 -63 89 -100
108 -47 24 -130 26 -180 4z"/>
<path d="M2425 3633 c-44 -23 -75 -53 -97 -96 -11 -22 -18 -40 -16 -42 2 -1
18 -6 36 -10 28 -6 32 -4 32 15 0 13 17 40 39 61 46 46 90 53 115 17 22 -32
20 -59 -9 -98 -14 -19 -25 -35 -25 -37 0 -2 16 -3 36 -3 27 0 43 7 65 31 26
28 29 29 29 10 0 -42 33 -91 75 -111 47 -23 54 -24 90 -10 l27 10 -36 37 c-19
20 -47 62 -62 92 -32 69 -67 108 -119 132 -49 23 -139 24 -180 2z"/>
<path d="M1855 3448 c-220 -22 -463 -117 -655 -254 -41 -29 -91 -67 -110 -85
l-35 -30 53 6 c42 5 67 16 120 54 154 112 360 200 552 236 126 24 350 24 480
1 199 -36 430 -137 576 -252 30 -24 55 -35 95 -39 l54 -6 -35 30 c-58 52 -180
136 -260 179 -256 139 -528 191 -835 160z"/>
<path d="M1826 3315 c-165 -27 -331 -88 -469 -172 -98 -60 -43 -50 84 15 188
96 319 130 534 138 230 10 433 -37 643 -146 103 -53 170 -70 97 -24 -127 80
-292 147 -445 180 -104 22 -333 27 -444 9z"/>
<path d="M1709 3204 c-109 -84 -290 -132 -609 -164 -58 -6 -129 -15 -159 -20
-42 -8 -57 -7 -75 5 -37 27 -92 37 -135 25 -52 -14 -101 -71 -101 -119 l0 -34
-21 27 c-12 15 -30 26 -45 26 -28 0 -28 0 -10 -35 8 -15 17 -51 21 -79 10 -81
26 -146 53 -214 22 -57 26 -62 40 -48 13 13 13 21 2 61 -27 96 11 207 93 266
76 56 141 73 347 95 257 28 331 20 395 -43 29 -28 36 -31 41 -18 4 9 4 31 1
50 -6 35 4 45 44 45 40 0 80 31 100 76 11 24 29 48 39 54 11 6 27 24 35 40 14
28 14 30 -3 30 -10 0 -34 -12 -53 -26z"/>
<path d="M2270 3218 c0 -8 14 -27 31 -44 17 -16 36 -43 43 -59 21 -49 71 -85
118 -85 l40 0 -6 -35 c-4 -20 -4 -45 -1 -56 7 -20 8 -20 38 9 73 69 127 76
364 51 257 -27 309 -40 384 -100 80 -63 115 -170 89 -264 -11 -40 -11 -48 2
-62 14 -13 19 -7 46 63 17 44 35 115 42 159 7 44 18 95 26 114 18 43 18 41
-10 41 -14 0 -33 -11 -44 -25 l-19 -24 -6 40 c-13 101 -141 150 -228 88 -23
-16 -34 -17 -80 -9 -30 5 -101 14 -159 20 -313 31 -516 84 -590 155 -31 29
-80 44 -80 23z"/>
<path d="M1511 2559 l-504 -508 -43 37 c-24 20 -43 44 -44 53 0 26 -36 121
-61 163 l-23 39 -9 -27 c-7 -20 -4 -39 11 -74 62 -145 67 -357 13 -639 -17
-89 -34 -205 -37 -258 -6 -88 -14 -110 -29 -85 -8 12 -65 13 -84 1 -11 -7 -19
0 -33 30 -21 48 -71 73 -123 63 -35 -6 -75 -37 -75 -57 1 -7 40 -31 88 -54
109 -52 171 -107 268 -236 42 -56 95 -123 116 -150 l40 -47 -52 0 c-50 0 -110
-22 -110 -39 0 -25 96 -81 162 -95 l27 -6 -24 -36 c-25 -37 -33 -107 -19 -162
6 -21 10 -19 60 33 57 60 120 94 223 121 50 12 100 15 235 12 171 -3 172 -3
238 -36 69 -34 103 -69 109 -111 4 -23 4 -23 27 -5 15 13 24 31 24 52 1 40 11
40 38 1 41 -56 22 -145 -40 -189 -42 -30 -90 -36 -128 -16 -54 28 -67 75 -32
118 10 14 16 28 13 32 -13 12 -51 5 -76 -14 l-26 -21 -14 33 c-21 50 -44 68
-86 68 -39 0 -71 -23 -71 -51 1 -8 20 -23 43 -34 26 -12 61 -43 90 -80 65 -82
115 -110 192 -110 75 1 135 30 170 83 50 77 42 162 -22 233 l-35 39 122 0 122
0 -35 -39 c-119 -131 -32 -316 148 -315 69 0 112 19 153 67 60 71 133 137 152
137 25 0 27 31 3 52 -49 42 -102 26 -133 -38 l-22 -44 -25 20 c-29 22 -73 27
-73 8 0 -7 7 -22 15 -32 22 -29 18 -64 -9 -91 -35 -35 -69 -40 -122 -20 -85
32 -122 137 -73 206 25 36 39 37 39 3 0 -32 17 -64 33 -64 7 1 21 20 32 43 17
35 32 48 89 77 l69 35 172 3 c135 3 186 0 236 -12 103 -27 166 -61 223 -121
50 -52 54 -54 60 -33 14 55 6 125 -19 162 l-24 36 27 6 c66 14 162 70 162 95
0 17 -60 39 -110 39 l-52 0 44 53 c25 28 77 96 118 150 86 117 175 193 276
239 41 18 74 38 74 45 0 20 -40 51 -75 57 -53 10 -102 -15 -124 -65 -11 -23
-22 -36 -25 -30 -11 17 -77 13 -98 -6 -17 -15 -18 -14 -18 43 0 64 -15 169
-54 397 -40 227 -32 390 24 540 16 43 19 64 12 85 -9 27 -9 26 -40 -34 -17
-34 -37 -83 -43 -110 -9 -34 -24 -59 -53 -86 l-40 -39 -510 511 c-281 280
-511 509 -511 508 0 0 -227 -230 -504 -509z m984 -89 l470 -470 -473 -473
-472 -472 -472 472 -473 473 470 470 c258 258 472 470 475 470 3 0 217 -212
475 -470z m14 -1046 c474 474 490 489 496 460 3 -16 13 -44 20 -61 l15 -33
-44 0 c-33 0 -56 -8 -92 -32 -53 -37 -66 -58 -35 -58 41 0 133 -51 190 -105
123 -118 159 -288 105 -498 -45 -175 -173 -313 -344 -371 -75 -25 -233 -46
-339 -46 l-56 1 96 38 c233 92 439 236 572 399 56 68 58 72 55 122 l-3 51 -43
-59 c-48 -66 -180 -200 -257 -260 -385 -303 -934 -364 -1393 -156 -177 80
-397 258 -510 411 -25 35 -48 61 -50 58 -2 -2 -1 -29 2 -59 7 -52 12 -60 94
-147 150 -159 320 -276 507 -349 131 -51 131 -51 -5 -45 -209 9 -326 45 -437
133 -189 151 -258 464 -151 680 43 86 197 202 268 202 26 0 25 12 -2 37 -36
32 -84 53 -123 53 -25 0 -35 4 -33 13 2 6 10 34 17 61 l14 48 488 -489 489
-488 489 489z"/>
<path d="M1834 2649 c-54 -55 -92 -97 -83 -94 11 4 23 -2 33 -17 13 -19 16
-57 16 -240 l0 -218 -91 0 -91 0 4 158 c3 118 9 167 22 197 15 37 9 32 -83
-59 -95 -95 -99 -100 -78 -111 22 -10 22 -15 25 -245 1 -129 0 -245 -3 -257
-3 -12 -15 -25 -26 -28 -19 -6 9 -38 217 -246 131 -131 239 -237 241 -236 1 2
-4 21 -12 42 -21 59 -22 1315 -1 1395 8 30 13 56 12 57 -1 1 -47 -43 -102 -98z
m-44 -886 l0 -208 -85 85 -85 85 0 122 0 123 85 0 85 0 0 -207z"/>
<path d="M2126 2699 c21 -81 20 -1334 -1 -1404 -14 -49 -13 -48 225 190 l238
238 -24 19 c-24 19 -24 22 -24 179 l0 159 -138 0 -139 0 -7 208 c-4 115 -4
217 0 228 4 10 15 26 26 34 17 14 13 20 -76 109 l-94 93 14 -53z m304 -852 l0
-122 -85 -85 c-46 -46 -87 -81 -90 -78 -3 3 -3 96 1 207 l7 201 84 0 83 0 0
-123z"/>
<path d="M2640 2145 c0 -75 1 -81 32 -112 l32 -33 -32 -33 c-31 -31 -32 -37
-32 -112 l0 -80 112 113 113 112 -113 112 -112 113 0 -80z"/>
<path d="M1295 2106 l-110 -104 113 -114 112 -113 0 80 c0 75 -1 81 -32 112
l-32 33 33 33 c31 33 32 37 29 105 l-3 72 -110 -104z"/>
<path d="M3070 1352 c-67 -105 -227 -268 -332 -340 -435 -298 -1002 -298
-1435 0 -105 72 -259 228 -330 335 -41 62 -59 82 -61 69 -6 -29 104 -182 198
-276 345 -346 850 -467 1315 -314 188 62 360 168 500 309 101 101 216 260 206
286 -4 12 -21 -7 -61 -69z"/>
<path d="M1065 2908 c-66 -75 -169 -232 -209 -319 -40 -86 -90 -246 -107 -339
-31 -171 -6 -471 52 -618 10 -25 12 -25 19 -7 4 11 -2 53 -16 102 -71 259 -47
565 65 821 45 105 132 241 201 317 86 95 86 95 62 95 -12 0 -39 -21 -67 -52z"/>
<path d="M2944 2898 c242 -269 364 -630 328 -971 -7 -61 -21 -146 -32 -187
-22 -83 -26 -140 -10 -124 18 18 60 203 71 319 28 269 -46 564 -200 801 -78
121 -167 224 -193 224 -17 0 -11 -11 36 -62z"/>
<path d="M962 2939 c-52 -10 -72 -32 -152 -167 -116 -193 -181 -392 -200 -612
-22 -246 29 -524 133 -725 l31 -60 6 55 c5 41 2 66 -11 97 -66 156 -100 327
-100 508 -1 323 105 623 309 873 19 23 33 42 31 41 -2 -1 -23 -5 -47 -10z"/>
<path d="M3069 2901 c127 -155 228 -362 271 -560 58 -263 39 -524 -55 -776
-31 -82 -35 -102 -29 -147 l7 -51 32 64 c91 181 138 385 138 604 0 236 -38
407 -136 618 -40 86 -161 276 -176 277 -3 1 -25 5 -48 9 l-43 8 39 -46z"/>
<path d="M432 2464 c-55 -27 -104 -83 -123 -141 -17 -52 -3 -111 51 -218 42
-81 50 -106 50 -151 0 -56 -19 -115 -46 -145 -17 -19 -13 -24 34 -34 47 -10
85 9 110 54 26 46 27 72 6 117 -16 33 -16 36 4 57 35 37 44 73 28 112 -12 27
-28 41 -78 65 -97 47 -119 90 -79 157 32 51 99 85 170 84 55 0 60 2 65 25 10
38 0 44 -73 44 -52 0 -79 -6 -119 -26z"/>
<path d="M3413 2484 c-8 -4 -9 -13 -2 -34 10 -26 14 -28 62 -28 63 1 112 -19
154 -61 68 -68 51 -121 -58 -181 -35 -19 -69 -46 -76 -60 -18 -33 -8 -78 23
-111 25 -26 25 -28 10 -57 -21 -42 -20 -91 3 -126 34 -51 81 -67 137 -46 25
10 25 12 11 28 -28 31 -47 90 -47 146 0 47 8 70 49 149 58 109 71 173 48 230
-43 103 -126 158 -236 156 -37 0 -71 -3 -78 -5z"/>
<path d="M1970 303 c-25 -19 -46 -38 -48 -42 -1 -4 20 -35 47 -69 l49 -61 50
61 c28 33 48 66 46 72 -4 9 -79 68 -94 73 -3 1 -25 -15 -50 -34z"/>
</g>
</svg>
